<svg width="326" height="76.401" viewBox="0 0 326 76.401" xmlns="http://www.w3.org/2000/svg"><g id="svgGroup" stroke-linecap="round" fill-rule="evenodd" font-size="9pt" stroke="#ffffff" stroke-width="0.25mm" fill="#ffffff" style="stroke:#ffffff;stroke-width:0.25mm;fill:#ffffff"><path d="M 104.8 72.7 L 104.8 75.2 L 83.2 75.2 L 83.2 72.7 Q 85.066 71.689 87.656 70.8 A 47.412 47.412 0 0 1 89.2 70.3 L 89.2 46.9 A 45.029 45.029 0 0 0 88.985 42.352 Q 88.513 37.709 87 34.65 A 7.517 7.517 0 0 0 81.617 30.465 A 12.141 12.141 0 0 0 79 30.2 A 12.292 12.292 0 0 0 76.233 30.501 A 10.276 10.276 0 0 0 74.3 31.15 Q 72.2 32.1 70.5 33.6 Q 68.8 35.1 67.6 37.05 Q 66.4 39 65.8 41.1 L 65.8 70.3 A 37.175 37.175 0 0 1 68.393 71.046 A 33.358 33.358 0 0 1 68.85 71.2 A 10.593 10.593 0 0 1 70.82 72.124 A 12.712 12.712 0 0 1 71.7 72.7 L 71.7 75.2 L 50.2 75.2 L 50.2 72.7 Q 53.3 71.1 56.8 70.3 L 56.8 7 L 49.2 6.2 L 49.2 3.6 A 36.627 36.627 0 0 1 52.232 2.508 Q 53.748 2.032 55.458 1.617 A 60.216 60.216 0 0 1 55.95 1.5 A 132.052 132.052 0 0 1 61.078 0.404 A 112.295 112.295 0 0 1 63.3 0 L 65.8 0 L 65.8 35.3 L 65.9 35.3 Q 68 30.6 71.95 27.3 Q 75.9 24 81.5 24 A 28.846 28.846 0 0 1 85.232 24.23 A 21.442 21.442 0 0 1 88.65 24.95 Q 91.8 25.9 93.9 28.3 A 12.975 12.975 0 0 1 95.7 31.012 Q 96.533 32.662 97.1 34.75 A 27.461 27.461 0 0 1 97.77 38.09 Q 98.012 39.797 98.118 41.77 A 60.447 60.447 0 0 1 98.2 45 L 98.2 70.3 Q 99.9 70.7 101.6 71.2 Q 103.3 71.7 104.8 72.7 Z M 214 72.7 L 214 75.2 L 192.4 75.2 L 192.4 72.7 Q 194.266 71.689 196.856 70.8 A 47.412 47.412 0 0 1 198.4 70.3 L 198.4 46.9 A 45.029 45.029 0 0 0 198.185 42.352 Q 197.713 37.709 196.2 34.65 A 7.517 7.517 0 0 0 190.817 30.465 A 12.141 12.141 0 0 0 188.2 30.2 A 12.292 12.292 0 0 0 185.433 30.501 A 10.276 10.276 0 0 0 183.5 31.15 Q 181.4 32.1 179.7 33.6 Q 178 35.1 176.8 37.05 Q 175.6 39 175 41.1 L 175 70.3 A 37.175 37.175 0 0 1 177.593 71.046 A 33.358 33.358 0 0 1 178.05 71.2 A 10.593 10.593 0 0 1 180.02 72.124 A 12.712 12.712 0 0 1 180.9 72.7 L 180.9 75.2 L 159.4 75.2 L 159.4 72.7 Q 162.5 71.1 166 70.3 L 166 7 L 158.4 6.2 L 158.4 3.6 A 36.627 36.627 0 0 1 161.432 2.508 Q 162.948 2.032 164.658 1.617 A 60.216 60.216 0 0 1 165.15 1.5 A 132.052 132.052 0 0 1 170.278 0.404 A 112.295 112.295 0 0 1 172.5 0 L 175 0 L 175 35.3 L 175.1 35.3 Q 177.2 30.6 181.15 27.3 Q 185.1 24 190.7 24 A 28.846 28.846 0 0 1 194.432 24.23 A 21.442 21.442 0 0 1 197.85 24.95 Q 201 25.9 203.1 28.3 A 12.975 12.975 0 0 1 204.9 31.012 Q 205.733 32.662 206.3 34.75 A 27.461 27.461 0 0 1 206.97 38.09 Q 207.212 39.797 207.318 41.77 A 60.447 60.447 0 0 1 207.4 45 L 207.4 70.3 Q 209.1 70.7 210.8 71.2 Q 212.5 71.7 214 72.7 Z M 5.1 53.6 L 9.2 68.3 A 8.918 8.918 0 0 0 10.722 69.508 A 12.215 12.215 0 0 0 12.3 70.35 A 7.639 7.639 0 0 0 13.673 70.798 Q 15.388 71.2 18 71.2 A 21.356 21.356 0 0 0 22.393 70.761 A 18.851 18.851 0 0 0 24 70.35 Q 26.8 69.5 28.85 67.85 Q 30.9 66.2 32.1 63.85 A 10.963 10.963 0 0 0 33.205 60.136 A 13.749 13.749 0 0 0 33.3 58.5 A 10.765 10.765 0 0 0 32.779 55.089 A 9.128 9.128 0 0 0 30.85 51.8 Q 28.4 49.1 24.75 47 A 96.686 96.686 0 0 0 19.934 44.414 A 115.501 115.501 0 0 0 16.8 42.9 Q 12.5 40.9 8.85 38.15 Q 5.2 35.4 2.75 31.55 A 15.005 15.005 0 0 1 0.803 26.756 Q 0.3 24.528 0.3 21.9 Q 0.3 17.7 1.8 14.4 Q 3.3 11.1 6.05 8.8 Q 8.8 6.5 12.6 5.25 A 24.665 24.665 0 0 1 17.565 4.191 A 31.677 31.677 0 0 1 21.1 4 Q 27.2 4 32.25 4.95 A 51.963 51.963 0 0 1 35.196 5.588 Q 38.158 6.325 40.135 7.269 A 15.613 15.613 0 0 1 40.2 7.3 Q 40.2 8.668 40.038 10.392 A 50.639 50.639 0 0 1 39.95 11.25 A 135.631 135.631 0 0 1 39.436 15.302 A 150.287 150.287 0 0 1 39.35 15.9 A 152.265 152.265 0 0 1 38.65 20.268 A 139.213 139.213 0 0 1 38.6 20.55 Q 38.256 22.484 37.913 24.011 A 51.62 51.62 0 0 1 37.8 24.5 L 35.2 24.5 L 31.2 10.8 A 12.848 12.848 0 0 0 29.581 10.216 Q 28.77 9.979 27.828 9.798 A 26.046 26.046 0 0 0 26.65 9.6 A 38.633 38.633 0 0 0 22.703 9.239 A 45.582 45.582 0 0 0 20.8 9.2 A 14.832 14.832 0 0 0 17.256 9.601 A 10.425 10.425 0 0 0 12.6 12.05 A 9.332 9.332 0 0 0 9.773 17.17 A 13.911 13.911 0 0 0 9.5 20 A 11.339 11.339 0 0 0 10.029 23.531 A 9.571 9.571 0 0 0 11.95 26.9 A 23.184 23.184 0 0 0 15.501 30.166 A 29.116 29.116 0 0 0 18.1 31.9 Q 21.8 34.1 26.05 36.15 Q 30.3 38.2 34 40.9 Q 37.7 43.6 40.15 47.3 A 14.286 14.286 0 0 1 42.188 52.291 Q 42.597 54.229 42.6 56.465 A 24.612 24.612 0 0 1 42.6 56.5 A 21.276 21.276 0 0 1 41.987 61.687 A 18.307 18.307 0 0 1 40.95 64.7 Q 39.3 68.4 36.2 71 A 19.976 19.976 0 0 1 31.654 73.839 A 25.535 25.535 0 0 1 28.6 75 A 30.213 30.213 0 0 1 23.239 76.122 A 40.402 40.402 0 0 1 18.4 76.4 Q 12.1 76.4 7.1 74.9 Q 2.1 73.4 0 71.7 Q 0.069 70.531 0.208 69.032 A 131.77 131.77 0 0 1 0.35 67.6 A 151.183 151.183 0 0 1 0.864 63.285 A 166.445 166.445 0 0 1 0.95 62.65 A 174.724 174.724 0 0 1 1.675 57.85 A 160.568 160.568 0 0 1 1.7 57.7 Q 2.1 55.3 2.5 53.6 L 5.1 53.6 Z M 303.5 72.7 L 303.5 75.2 L 282 75.2 L 282 72.7 Q 284.7 71.3 287.9 70.3 L 287.9 46.6 A 42.942 42.942 0 0 0 287.685 42.163 Q 287.449 39.894 286.953 38.003 A 17.577 17.577 0 0 0 285.7 34.6 A 7.507 7.507 0 0 0 280.298 30.458 A 12.295 12.295 0 0 0 277.7 30.2 A 12.215 12.215 0 0 0 274.077 30.728 A 11.26 11.26 0 0 0 273.05 31.1 Q 270.9 32 269.25 33.55 Q 267.6 35.1 266.4 37.05 Q 265.2 39 264.5 41.1 L 264.5 70.3 A 17.396 17.396 0 0 1 269.68 72.217 A 20.142 20.142 0 0 1 270.5 72.7 L 270.5 75.2 L 248.9 75.2 L 248.9 72.7 A 22.321 22.321 0 0 1 250.952 71.772 Q 252.905 70.996 255.5 70.3 L 255.5 31 L 248.9 30.2 L 248.9 27.6 A 38.161 38.161 0 0 1 251.688 26.554 Q 253.146 26.067 254.794 25.628 A 61.801 61.801 0 0 1 254.9 25.6 Q 258.3 24.7 262 24 L 264.5 24 L 264.5 35.2 L 264.6 35.2 Q 266.7 30.6 270.65 27.3 Q 274.6 24 280.2 24 A 28.846 28.846 0 0 1 283.932 24.23 A 21.442 21.442 0 0 1 287.35 24.95 Q 290.5 25.9 292.6 28.3 A 12.975 12.975 0 0 1 294.4 31.012 Q 295.233 32.662 295.8 34.75 A 27.461 27.461 0 0 1 296.47 38.09 Q 296.712 39.797 296.818 41.77 A 60.447 60.447 0 0 1 296.9 45 L 296.9 70.3 A 22.461 22.461 0 0 1 299.919 71.034 Q 301.495 71.542 302.775 72.261 A 12.559 12.559 0 0 1 303.5 72.7 Z M 147.8 69.3 L 154.7 70.3 L 154.7 72.4 A 34.404 34.404 0 0 1 151.36 73.908 A 41.882 41.882 0 0 1 149.15 74.7 A 46.253 46.253 0 0 1 145.435 75.755 A 38.583 38.583 0 0 1 143.3 76.2 L 140.8 76.2 A 14.88 14.88 0 0 1 139.726 72.332 A 17.503 17.503 0 0 1 139.6 71.15 Q 139.4 68.4 139.3 65.1 L 138.8 65.1 A 12.84 12.84 0 0 1 137.966 67.715 A 16.045 16.045 0 0 1 137.25 69.15 Q 136.1 71.2 134.25 72.8 Q 132.4 74.4 129.9 75.4 A 13.728 13.728 0 0 1 126.684 76.235 A 18.002 18.002 0 0 1 124.2 76.4 A 16.415 16.415 0 0 1 119.615 75.789 A 12.747 12.747 0 0 1 114.25 72.7 A 12.365 12.365 0 0 1 110.504 64.907 A 17.077 17.077 0 0 1 110.4 63 Q 110.4 59.209 111.656 56.539 A 10.304 10.304 0 0 1 112.25 55.45 Q 114.1 52.5 117.7 50.8 Q 121.3 49.1 126.6 48.35 Q 131.9 47.6 138.9 47.2 A 69.863 69.863 0 0 0 139.135 43.824 Q 139.236 41.556 139.155 39.568 A 40.971 40.971 0 0 0 139.15 39.45 A 23.852 23.852 0 0 0 138.896 36.812 Q 138.685 35.456 138.314 34.299 A 13.183 13.183 0 0 0 138.05 33.55 A 9.38 9.38 0 0 0 136.921 31.438 A 7.527 7.527 0 0 0 135.25 29.75 Q 133.569 28.524 130.94 28.411 A 12.652 12.652 0 0 0 130.4 28.4 Q 129 28.4 127.25 28.55 Q 125.5 28.7 123.8 29.4 L 119.1 41.4 L 116.5 41.4 Q 115.5 38.4 114.75 35.2 A 38.629 38.629 0 0 1 113.827 29.288 A 35.729 35.729 0 0 1 113.8 28.9 A 32.991 32.991 0 0 1 120.536 25.823 A 37.914 37.914 0 0 1 122.25 25.3 A 34.448 34.448 0 0 1 127.813 24.249 A 44.377 44.377 0 0 1 132.6 24 A 29.332 29.332 0 0 1 135.726 24.156 Q 138.701 24.476 140.75 25.45 A 13.789 13.789 0 0 1 143.141 26.881 A 10.208 10.208 0 0 1 145.4 29.2 Q 147 31.5 147.5 34.3 Q 148 37.1 148 39.9 Q 148 45.9 147.75 51.45 Q 147.5 57 147.5 62.1 A 82.649 82.649 0 0 0 147.514 63.666 Q 147.538 64.9 147.6 65.9 Q 147.7 67.5 147.8 69.3 Z M 242 72.7 L 242 75.2 L 219.8 75.2 L 219.8 72.7 Q 221.3 71.9 222.9 71.35 A 45.389 45.389 0 0 1 224.906 70.715 A 56.738 56.738 0 0 1 226.4 70.3 L 226.4 31 L 219.8 30.2 L 219.8 27.6 A 47.226 47.226 0 0 1 224.024 26.092 A 56.073 56.073 0 0 1 226.1 25.5 Q 229.5 24.6 232.9 24 L 235.4 24 L 235.4 70.3 Q 237.4 70.8 239 71.35 Q 240.6 71.9 242 72.7 Z M 139 61.5 L 139 51 Q 135.103 51 132.154 51.271 A 38.852 38.852 0 0 0 129.5 51.6 Q 125.8 52.2 123.7 53.5 A 8.186 8.186 0 0 0 122.111 54.762 A 6.267 6.267 0 0 0 120.8 56.75 A 10.494 10.494 0 0 0 120.132 59.26 A 13.728 13.728 0 0 0 120 61.2 A 13.509 13.509 0 0 0 120.237 63.812 Q 120.54 65.349 121.231 66.542 A 7.149 7.149 0 0 0 122.2 67.85 A 7.263 7.263 0 0 0 126.347 70.044 A 10.52 10.52 0 0 0 128.2 70.2 A 10.597 10.597 0 0 0 130.533 69.954 A 8.361 8.361 0 0 0 132.6 69.2 A 12.716 12.716 0 0 0 134.693 67.833 A 10.716 10.716 0 0 0 135.8 66.8 A 15.994 15.994 0 0 0 137.104 65.209 A 12.905 12.905 0 0 0 137.9 63.95 A 20.67 20.67 0 0 0 138.351 63.088 Q 138.571 62.641 138.732 62.247 A 8.217 8.217 0 0 0 139 61.5 Z M 312.587 67.349 A 7.662 7.662 0 0 0 312.3 69.5 A 8.228 8.228 0 0 0 312.334 70.251 A 6.002 6.002 0 0 0 314.2 74.2 A 6.315 6.315 0 0 0 316.844 75.703 A 8.167 8.167 0 0 0 319.1 76 A 9.142 9.142 0 0 0 320.749 75.858 A 6.442 6.442 0 0 0 324.1 74.2 A 5.845 5.845 0 0 0 325.674 71.713 A 7.19 7.19 0 0 0 326 69.5 A 8.429 8.429 0 0 0 325.922 68.331 A 5.986 5.986 0 0 0 324.1 64.7 A 6.322 6.322 0 0 0 321.298 63.164 A 8.686 8.686 0 0 0 319.1 62.9 A 8.915 8.915 0 0 0 317.84 62.986 A 6.482 6.482 0 0 0 314.2 64.7 A 5.833 5.833 0 0 0 312.587 67.349 Z M 224.756 6.294 A 6.736 6.736 0 0 0 224.5 8.2 Q 224.5 10.9 226.25 12.45 A 5.975 5.975 0 0 0 228.925 13.791 A 8.814 8.814 0 0 0 230.9 14 A 10.669 10.669 0 0 0 231.058 13.999 Q 232.1 13.983 232.983 13.763 A 5.714 5.714 0 0 0 235.5 12.45 A 4.994 4.994 0 0 0 236.971 10.028 A 6.9 6.9 0 0 0 237.2 8.2 A 7.546 7.546 0 0 0 237.119 7.071 A 5.308 5.308 0 0 0 235.5 3.9 A 5.7 5.7 0 0 0 232.829 2.507 A 8.499 8.499 0 0 0 230.9 2.3 A 8.656 8.656 0 0 0 229.042 2.489 A 5.939 5.939 0 0 0 226.25 3.9 A 5.155 5.155 0 0 0 224.756 6.294 Z" vector-effect="non-scaling-stroke"/></g></svg>
